<svg width="503" height="526" viewBox="0 0 503 526" fill="none" xmlns="http://www.w3.org/2000/svg">
<g clip-path="url(#clip0_741_23)">
<path d="M1.66667 498.5C1.66667 510.282 11.2179 519.833 23 519.833C34.7821 519.833 44.3333 510.282 44.3333 498.5C44.3333 486.718 34.7821 477.167 23 477.167C11.2179 477.167 1.66667 486.718 1.66667 498.5ZM91.1782 425.33L89.3382 421.779L88.4541 422.237L87.888 423.056L91.1782 425.33ZM461.167 22.5C461.167 34.2821 470.718 43.8333 482.5 43.8333C494.282 43.8333 503.833 34.2821 503.833 22.5C503.833 10.7179 494.282 1.16667 482.5 1.16667C470.718 1.16667 461.167 10.7179 461.167 22.5ZM51.1611 483.215L53.0692 486.731L53.9084 486.275L54.4514 485.49L51.1611 483.215ZM451.839 43.288L449.594 39.9772L448.696 40.5865L448.228 41.5665L451.839 43.288ZM328.242 302.513L330.082 306.065L331.274 305.447L331.852 304.234L328.242 302.513ZM24.9081 502.016L53.0692 486.731L49.253 479.7L21.0919 494.984L24.9081 502.016ZM54.4514 485.49L94.4685 427.605L87.888 423.056L47.8708 480.941L54.4514 485.49ZM454.084 46.5988L484.745 25.8108L480.255 19.1892L449.594 39.9772L454.084 46.5988ZM93.0183 428.882L330.082 306.065L326.402 298.961L89.3382 421.779L93.0183 428.882ZM331.852 304.234L455.449 45.0096L448.228 41.5665L324.631 300.791L331.852 304.234Z" fill="#C4C4C4"/>
<path d="M435.016 118.247L382.702 63.5926C379.012 59.7166 374.626 56.6413 369.796 54.5432C364.965 52.4452 359.786 51.3659 354.556 51.3672C343.897 51.3672 333.876 55.7334 326.361 63.5926L270.068 122.459C266.361 126.318 263.42 130.905 261.414 135.956C259.408 141.007 258.376 146.423 258.377 151.893C258.377 163.039 262.552 173.518 270.068 181.378L311.231 224.423C301.596 246.632 288.2 266.837 271.689 284.061C255.22 301.368 235.901 315.428 214.659 325.565L173.496 282.52C169.805 278.644 165.419 275.568 160.589 273.47C155.759 271.372 150.58 270.293 145.349 270.294C134.69 270.294 124.669 274.66 117.154 282.52L60.8119 341.335C57.1009 345.201 54.1575 349.796 52.1511 354.857C50.1448 359.917 49.115 365.342 49.1211 370.82C49.1211 381.966 53.2964 392.445 60.8119 400.304L113.028 454.908C125.013 467.493 141.567 474.633 158.563 474.633C162.149 474.633 165.587 474.325 168.977 473.708C235.192 462.305 300.867 425.474 353.868 370.101C406.821 314.778 441.992 246.152 453.044 176.703C456.384 155.488 449.655 133.657 435.016 118.247Z" fill="#C9C9C9"/>
</g>
<defs>
<clipPath id="clip0_741_23">
<rect width="503" height="526" fill="white"/>
</clipPath>
</defs>
</svg>
