<svg width="512" height="512" viewBox="0 0 512 512" fill="none" xmlns="http://www.w3.org/2000/svg">
<g clip-path="url(#clip0_729_28)">
<path d="M379.806 59.3508L379.813 59.3585L432.116 114.002C432.118 114.004 432.119 114.005 432.12 114.006C445.888 128.503 452.241 149.08 449.093 169.08C438.179 237.652 403.419 305.548 350.979 360.335C298.481 415.182 233.552 451.528 168.298 462.766L168.279 462.769L168.261 462.773C165.114 463.345 161.915 463.633 158.563 463.633C142.682 463.633 127.169 456.956 115.924 445.149L115.919 445.143L63.7029 390.54C56.9134 383.44 53.1211 373.957 53.1211 363.82L53.1211 363.815C53.1156 358.84 54.051 353.917 55.8695 349.331C57.6879 344.745 60.3512 340.591 63.6977 337.105L63.7005 337.102L120.042 278.287L120.045 278.284C126.829 271.19 135.815 267.294 145.349 267.294H145.35C150.028 267.293 154.665 268.258 158.995 270.139C163.326 272.02 167.271 274.783 170.599 278.278L170.605 278.284L211.768 321.33L213.769 323.422L216.382 322.175C238.068 311.826 257.781 297.477 274.58 279.825C291.422 262.254 305.08 241.652 314.901 219.015L315.958 216.578L314.122 214.659L272.959 171.613C266.169 164.513 262.377 155.03 262.377 144.893V144.892C262.376 139.925 263.313 135.011 265.132 130.433C266.95 125.855 269.611 121.71 272.953 118.23L272.959 118.224L329.252 59.3571C336.036 52.2629 345.022 48.3672 354.556 48.3672L354.557 48.3672C359.235 48.366 363.872 49.3311 368.202 51.2121C372.533 53.0933 376.478 55.856 379.806 59.3508Z" fill="#00920F" stroke="black" stroke-width="8"/>
</g>
<defs>
<clipPath id="clip0_729_28">
<rect width="512" height="512" rx="40" fill="white"/>
</clipPath>
</defs>
</svg>
